<svg width="234" height="110" viewBox="0 0 234 110" fill="none" xmlns="http://www.w3.org/2000/svg">
<path d="M233.972 0V110H210.624V99.9215C206.002 103.193 200.933 105.712 195.584 107.411C190.222 109.109 184.58 110 178.799 110C164.053 110 150.214 104.279 139.797 93.8939L125.078 79.2217L141.277 63.0739L155.995 77.76C162.098 83.8294 170.197 87.1842 178.827 87.1842C187.457 87.1842 195.556 83.8294 201.645 77.76C207.733 71.6768 211.099 63.6029 211.099 55C211.099 46.3971 207.733 38.3232 201.645 32.2399C189.063 19.7115 168.577 19.7115 155.995 32.2399L94.1753 93.88C83.744 104.279 69.8914 109.986 55.1451 109.986C40.3988 109.986 26.5601 104.265 16.1288 93.88C-5.37626 72.4424 -5.37626 37.5437 16.1288 16.106C26.8813 5.37332 41.0132 0.0139208 55.1451 0.0139208C69.277 0.0139208 83.4089 5.37332 94.1614 16.106L108.88 30.7783L92.6812 46.9261L77.9628 32.2539C65.3809 19.7115 44.9092 19.7115 32.3274 32.2399C19.7455 44.7823 19.7455 65.2037 32.3274 77.7461C44.9092 90.2746 65.3809 90.2746 77.9628 77.7461L139.797 16.106C150.214 5.70742 164.067 0 178.813 0C190.39 0 201.407 3.54973 210.652 10.0785V0H234H233.972Z" fill="#7500EA"/>
</svg>
