<svg width="1236" height="124" viewBox="0 0 1236 124" fill="none" xmlns="http://www.w3.org/2000/svg">
<g clip-path="url(#clip0_1_50)">
<path d="M175.168 23.873V73.1532C175.168 93.1101 165.032 104.728 150.489 104.728C136.779 104.728 130.609 93.7791 130.609 80.2678V23.873H109.554V83.7599C109.554 111.06 126.512 124 146.082 124C168.705 124 175.168 108.987 175.168 108.987V124H196.207V23.873H175.168Z" fill="white"/>
<path d="M50.0759 104.353C34.2272 104.353 21.3818 90.7276 21.3818 73.9202C21.3818 57.1127 34.2272 43.4872 50.0759 43.4872C61.5666 43.4872 71.4577 50.6671 76.0279 61.029H98.4543C92.7579 39.6362 73.2532 23.873 50.0759 23.873C22.4101 23.873 0 46.2776 0 73.9202C0 101.563 22.4101 123.984 50.0759 123.984C73.2695 123.984 92.7743 108.22 98.4543 86.8276H76.0279C71.4414 97.1732 61.5666 104.369 50.0759 104.369V104.353Z" fill="white"/>
<path d="M262.588 66.4302L246.511 62.2039C237.958 60.0173 233.698 56.1662 233.698 50.6508C233.698 45.7391 237.419 40.8274 247.653 40.8274C257.887 40.8274 262.572 48.252 263.339 52.7558H284.394C283.105 37.9228 271.581 23.873 247.866 23.873C225.374 23.873 212.3 35.2793 212.3 50.8303C212.3 66.3813 220.461 75.552 236.783 79.9088L252.468 84.1352C263.567 86.9256 266.62 90.6624 266.62 96.8469C266.62 103.031 261.135 107.046 251.13 107.046C239.525 107.046 232.964 102.297 231.429 92.7837H209.623C210.537 110.097 225.504 123.984 250.559 123.984C272.838 123.984 288.05 113.752 288.05 95.5088C288.05 80.48 279.563 70.8034 262.604 66.4302H262.588Z" fill="white"/>
<path d="M1210.57 66.4302L1194.49 62.2039C1185.94 60.0173 1181.68 56.1662 1181.68 50.6508C1181.68 45.7391 1185.4 40.8274 1195.64 40.8274C1205.87 40.8274 1210.55 48.252 1211.32 52.7558H1232.38C1231.09 37.9228 1219.56 23.873 1195.85 23.873C1173.36 23.873 1160.28 35.2793 1160.28 50.8303C1160.28 66.3813 1168.44 75.552 1184.77 79.9088L1200.45 84.1352C1211.55 86.9256 1214.6 90.6624 1214.6 96.8469C1214.6 103.031 1209.12 107.046 1199.11 107.046C1187.51 107.046 1180.95 102.297 1179.41 92.7837H1157.61C1158.52 110.097 1173.49 123.984 1198.54 123.984C1220.82 123.984 1236.03 113.752 1236.03 95.5088C1236.03 80.48 1227.55 70.8034 1210.59 66.4302H1210.57Z" fill="white"/>
<path d="M329.541 88.5575V45.625H356.897V26.7614H329.541V0H308.502V26.7614H288.622V45.625H308.502V92.0169C308.502 116.787 326.473 124.016 341.212 123.984C347.071 123.984 352.294 123.266 356.897 121.862V102.999C353.943 104.272 350.205 104.924 345.602 104.924C331.206 104.924 329.541 97.108 329.541 88.5738V88.5575Z" fill="white"/>
<path d="M583.152 23.8568C576.509 23.8568 570.438 25.5212 564.888 28.8664C559.339 32.1953 555.225 36.8948 552.549 42.9161C547.195 30.2045 537.32 23.8568 522.908 23.8568C510.666 23.8568 501.608 28.8664 495.748 38.8693V23.5957H474.709V123.967H495.748V74.6872C495.748 64.6843 497.821 56.9169 501.967 51.3852C506.113 45.8697 511.695 43.112 518.713 43.112C524.328 43.112 528.572 45.2986 531.444 49.6555C534.317 54.0287 535.753 60.1152 535.753 67.9479V123.984H556.792V73.1533C557.053 63.6562 559.224 56.2805 563.305 51.0098C567.385 45.7555 572.804 43.112 579.562 43.112C585.176 43.112 589.42 45.2986 592.293 49.6555C595.165 54.0287 596.602 60.1152 596.602 67.9479V123.984H617.592V64.4885C617.592 52.0542 614.54 42.1492 608.419 34.8388C602.298 27.5283 593.876 23.8731 583.169 23.8731L583.152 23.8568Z" fill="white"/>
<path d="M1122.95 38.6899C1120.02 34.5778 1115.8 31.0858 1110.32 28.1975C1104.85 25.3092 1098.85 23.8569 1092.35 23.8569C1079.34 23.8569 1068.41 28.736 1059.54 38.4941C1050.68 48.2523 1046.26 60.0664 1046.26 73.9204C1046.26 87.7743 1050.7 99.5885 1059.54 109.347C1068.41 119.105 1079.34 123.984 1092.35 123.984C1098.85 123.984 1104.84 122.532 1110.32 119.643C1115.8 116.755 1120.02 113.263 1122.95 109.151V123.967H1143.99V23.8569H1122.95V38.6736V38.6899ZM1116.65 95.8843C1111.3 101.791 1104.48 104.745 1096.19 104.745C1087.89 104.745 1081.07 101.791 1075.72 95.8843C1070.36 89.9935 1067.69 82.6505 1067.69 73.9367C1067.69 65.2229 1070.36 57.8962 1075.72 51.9891C1081.09 46.082 1087.91 43.1284 1096.19 43.1284C1104.46 43.1284 1111.3 46.082 1116.65 51.9891C1122.01 57.8962 1124.68 65.2066 1124.68 73.9367C1124.68 82.6668 1122.01 89.9772 1116.65 95.8843Z" fill="white"/>
<path d="M1024.84 23.8569L995.577 95.2969L966.491 23.8569H943.151L986.372 123.984H1004.93L1048.36 23.8569H1024.84Z" fill="white"/>
<path d="M839.473 23.8569V123.984H818.434V114.813C814.272 117.783 809.702 120.084 804.871 121.634C800.039 123.184 794.947 123.984 789.74 123.984C776.454 123.984 763.968 118.778 754.583 109.33L741.313 95.9822L755.921 81.2798L769.191 94.6441C774.691 100.176 781.987 103.227 789.773 103.227C797.558 103.227 804.854 100.176 810.339 94.6441C815.823 89.1124 818.859 81.753 818.859 73.9204C818.859 66.0878 815.823 58.7447 810.339 53.1966C798.995 41.7903 780.535 41.7903 769.191 53.1966L713.467 109.298C704.066 118.762 691.58 123.951 678.294 123.951C665.007 123.951 652.521 118.746 643.12 109.298C623.729 89.7814 623.729 58.0267 643.12 38.5104C652.815 28.736 665.546 23.8569 678.294 23.8569C691.041 23.8569 703.772 28.736 713.467 38.5104L726.737 51.8585L712.129 66.561L698.859 53.2129C687.515 41.7903 669.072 41.7903 657.728 53.2129C646.384 64.6355 646.384 83.2216 657.728 94.6278C669.072 106.034 687.532 106.034 698.859 94.6278L754.599 38.5268C763.984 29.0624 776.47 23.8733 789.773 23.8733C800.203 23.8733 810.143 27.1042 818.467 33.0439V23.8733H839.522H839.49L839.473 23.8569Z" fill="white"/>
<path d="M874.108 123.984V74.7034C874.108 54.7466 884.244 43.1282 898.787 43.1282C912.498 43.1282 918.667 54.0775 918.667 67.5888V124H939.723V64.1131C939.723 36.8132 922.764 23.873 903.194 23.873C880.572 23.873 874.108 38.8855 874.108 38.8855V23.873H853.069V124H874.108V123.984Z" fill="white"/>
<path d="M411.037 23.8569C383.387 23.8569 360.961 46.2778 360.961 73.9204C360.961 101.563 383.371 123.984 411.037 123.984C438.703 123.984 461.113 101.579 461.113 73.9204C461.113 46.2615 438.703 23.8569 411.037 23.8569ZM411.037 104.353C395.188 104.353 382.343 90.7278 382.343 73.9204C382.343 57.1129 395.188 43.4874 411.037 43.4874C426.886 43.4874 439.731 57.1129 439.731 73.9204C439.731 90.7278 426.886 104.353 411.037 104.353Z" fill="white"/>
</g>
<defs>
<clipPath id="clip0_1_50">
<rect width="1236" height="124" fill="white"/>
</clipPath>
</defs>
</svg>
